# xmcd
#
# Track frame offsets: 
#        150
#        12270
#        25173
#        38547
#        52116
#        62677
#        75658
#        89276
#        100988
#        112758
#        125460
#        138344
#        148641
#        158626
#        170405
#        183329
#        193645
#        204461
#        215630
#        227601
#        238128
#        250997
#        262358
#        273668
#        286098
#        296533
#        306759
#        320160
#        332054
#
# Disc length: 4586 seconds
#
# Revision: 1
# Processed by: cddbd v1.5.2PL0 Copyright (c) Steve Scherf et al.
# Submitted via: ExactAudioCopy v0.99pb5
#
DISCID=ab11e81d
DTITLE=Robert Johnson - Old School Blues
DYEAR=2003
DGENRE=Blues
TTITLE0=Cross Road Blues (Take 2)
TTITLE1=Preaching Blues (Up Jumped the Devil)
TTITLE2=I Believe I'll Dust My Broom
TTITLE3=Terraplane Blues
TTITLE4=Love In Vain (Take 2)
TTITLE5=32-20 Blues
TTITLE6=Sweet Home Chicago
TTITLE7=If I Had Possession Over Judgment Day
TTITLE8=I'm A Steady Rollin' Man
TTITLE9=Come On In My Kitchen (Take 1)
TTITLE10=Walking Blues
TTITLE11=Stop Breakin' Down Blues (Take 1)
TTITLE12=Little Queen of Spades (Take 1)
TTITLE13=Hellhound On My Trail
TTITLE14=Rambling On My Mind (Take 2)
TTITLE15=Honeymoon Blues
TTITLE16=From Four Till Late
TTITLE17=Stones In My Passway
TTITLE18=Phonograph Blues (Take 1)
TTITLE19=Drunk Hearted Man (Take 2)
TTITLE20=Kindhearted Woman Blues (Take 1)
TTITLE21=Dead Shrimp Blues
TTITLE22=Me and the Devil Blues (Take 2)
TTITLE23=Traveling Riverside Blues
TTITLE24=Malted Milk
TTITLE25=Milkcow's Calf Blues (Take 1)
TTITLE26=They're Red Hot
TTITLE27=When You Got a Good Friend (Take 1)
TTITLE28=Last Fair Deal Gone Done
EXTD=
EXTT0=
EXTT1=
EXTT2=
EXTT3=
EXTT4=
EXTT5=
EXTT6=
EXTT7=
EXTT8=
EXTT9=
EXTT10=
EXTT11=
EXTT12=
EXTT13=
EXTT14=
EXTT15=
EXTT16=
EXTT17=
EXTT18=
EXTT19=
EXTT20=
EXTT21=
EXTT22=
EXTT23=
EXTT24=
EXTT25=
EXTT26=
EXTT27=
EXTT28=
PLAYORDER=
